<?xml version="1.0" encoding="UTF-8"?><svg id="_Слой_1" xmlns="http://www.w3.org/2000/svg" width="32" height="32" xmlns:xlink="http://www.w3.org/1999/xlink" viewBox="0 0 32 32"><defs><style>.cls-1{fill:none;}.cls-1,.cls-2,.cls-3{stroke-width:0px;}.cls-2{fill:#fff;}.cls-4{clip-path:url(#clippath);}.cls-3{fill:#fed54f;}</style><clipPath id="clippath"><rect class="cls-1" x="10.67" y="10.67" width="10.67" height="10.67"/></clipPath></defs><rect class="cls-3" width="32" height="32" rx="8" ry="8"/><g class="cls-4"><path class="cls-2" d="M19.66,11.62c.18-.18.43-.29.69-.29.26,0,.51.1.69.28.19.18.29.43.29.69,0,.26-.1.51-.28.7l-5.23,6.53c-.09.1-.2.17-.32.23-.12.05-.25.08-.38.09-.13,0-.26-.02-.39-.07-.12-.05-.23-.12-.33-.22l-3.47-3.46c-.18-.18-.29-.43-.29-.69,0-.26.1-.51.29-.69.18-.18.43-.29.69-.29.26,0,.51.1.69.29l2.74,2.74,4.55-5.79s.02-.02.03-.03h0Z"/></g></svg>